<svg xmlns="http://www.w3.org/2000/svg" width="50" height="50" viewBox="0 0 50 50">
    <path fill="#FFF" fill-rule="nonzero" d="M36.32 31.769c-.435 1.395-1.121 2.79-2.059 4.185-1.44 2.188-2.874 3.281-4.302 3.281-.547 0-1.328-.178-2.344-.535-.96-.357-1.802-.536-2.528-.536-.68 0-1.473.184-2.377.553-.904.379-1.64.569-2.21.569-1.696 0-3.376-1.446-5.04-4.336-1.64-2.913-2.46-5.72-2.46-8.421 0-2.545.63-4.632 1.892-6.261 1.25-1.607 2.835-2.41 4.754-2.41.804 0 1.791.167 2.963.501 1.161.335 1.931.503 2.31.503.503 0 1.3-.19 2.395-.57 1.138-.38 2.103-.569 2.896-.569 1.328 0 2.517.363 3.566 1.088.58.402 1.16.96 1.74 1.674-.881.748-1.517 1.407-1.908 1.976a5.961 5.961 0 0 0-1.088 3.465c0 1.384.385 2.629 1.155 3.734s1.652 1.808 2.645 2.109zm-6.294-19.637c0 .68-.162 1.44-.486 2.276-.335.838-.854 1.608-1.557 2.31-.602.603-1.205 1.005-1.808 1.206-.413.123-.993.218-1.74.285.033-1.663.468-3.097 1.305-4.303.826-1.194 2.22-2.02 4.185-2.477.011.033.025.094.042.184.017.089.03.15.042.184 0 .045.003.1.008.167.006.067.009.123.009.168z"/>
</svg>
