<svg xmlns="http://www.w3.org/2000/svg" width="50" height="50" viewBox="0 0 50 50">
    <path fill="#FFF" fill-rule="nonzero" d="M21.253 16.943a.628.628 0 0 0 .46-.192.628.628 0 0 0 .193-.46.628.628 0 0 0-.192-.461.628.628 0 0 0-.46-.193.601.601 0 0 0-.453.193.643.643 0 0 0-.184.46c0 .179.062.332.184.46a.601.601 0 0 0 .452.193zm7.065 0c.179 0 .33-.064.452-.192a.643.643 0 0 0 .184-.46.643.643 0 0 0-.184-.461.601.601 0 0 0-.452-.193.628.628 0 0 0-.46.193.628.628 0 0 0-.193.46c0 .179.064.332.193.46a.628.628 0 0 0 .46.193zm-13.594 3.08c.47 0 .87.168 1.206.503.335.334.502.736.502 1.205v7.199c0 .48-.165.887-.494 1.222-.33.335-.734.502-1.214.502s-.887-.167-1.222-.502A1.663 1.663 0 0 1 13 28.93V21.73c0-.469.167-.87.502-1.205a1.663 1.663 0 0 1 1.222-.503zm17.746.319v11.15c0 .512-.179.948-.536 1.305a1.757 1.757 0 0 1-1.289.536H29.39v3.8c0 .48-.168.887-.503 1.222a1.663 1.663 0 0 1-1.222.502c-.48 0-.887-.167-1.222-.502a1.663 1.663 0 0 1-.502-1.222v-3.8h-2.31v3.8c0 .48-.168.887-.503 1.222a1.663 1.663 0 0 1-1.222.502c-.468 0-.87-.167-1.205-.502a1.663 1.663 0 0 1-.502-1.222l-.017-3.8h-1.239c-.513 0-.949-.179-1.306-.536a1.777 1.777 0 0 1-.535-1.306v-11.15H32.47zm-3.884-6.78a7.362 7.362 0 0 1 2.863 2.57 6.49 6.49 0 0 1 1.071 3.607H17.035a6.49 6.49 0 0 1 1.071-3.608 7.333 7.333 0 0 1 2.88-2.57l-1.19-2.193c-.077-.145-.05-.256.085-.335.145-.066.256-.033.334.1l1.206 2.21a8.23 8.23 0 0 1 3.365-.702 8.23 8.23 0 0 1 3.365.703l1.205-2.21c.078-.134.19-.167.335-.1.134.078.162.19.084.334l-1.19 2.193zm7.985 8.169v7.199c0 .48-.167.887-.502 1.222a1.663 1.663 0 0 1-1.222.502c-.469 0-.87-.167-1.205-.502a1.663 1.663 0 0 1-.502-1.222V21.73c0-.48.167-.884.502-1.214.335-.329.736-.494 1.205-.494.48 0 .887.165 1.222.494.335.33.502.734.502 1.214z"/>
</svg>
